# xmcd
#
# Track frame offsets:
#	150
#	18053
#	42291
#	57485
#	72639
#	89076
#	105489
#	120419
#	140929
#	154599
#	169292
#	183419
#	206348
#
# Disc length: 3052 seconds
#
# Revision: 1
# Processed by: cddbd v1.4PL0 Copyright (c) Steve Scherf et al.
# Submitted via: EasyCDDAExtractor 6.2.0.3
#
DISCID=b80bea0d
DTITLE=Roland - Lime and Coconut
DYEAR=2003
DGENRE=Blues
TTITLE0=Going Down Slow
TTITLE1=Lime In The Coconut
TTITLE2=The Spider And The Fly
TTITLE3=Blues Wearing High Heels Shoes
TTITLE4=Rubber Burning
TTITLE5=That's Amore
TTITLE6=Good times - Bad Times
TTITLE7=Kosher Kamasutra
TTITLE8=Alberta
TTITLE9=Bird In My Pyjamas
TTITLE10=Baby Call My Name
TTITLE11=Do It
TTITLE12=data
EXTD=
EXTT0=
EXTT1=
EXTT2=
EXTT3=
EXTT4=
EXTT5=
EXTT6=
EXTT7=
EXTT8=
EXTT9=
EXTT10=
EXTT11=
EXTT12=
PLAYORDER=
